HIERARCHY
ROOT Hips
{
	OFFSET 0.000000 0.000000 0.000000
	CHANNELS 6 Xposition Yposition Zposition Zrotation Yrotation Xrotation 
	JOINT LHipJoint
	{
		OFFSET 0.000000 0.000000 0.000000
		CHANNELS 3 Zrotation Yrotation Xrotation
		JOINT LeftUpLeg
		{
			OFFSET 1.363060 -1.794630 0.839290
			CHANNELS 3 Zrotation Yrotation Xrotation
			JOINT LeftLeg
			{
				OFFSET 2.448110 -6.726130 0.000000
				CHANNELS 3 Zrotation Yrotation Xrotation
				JOINT LeftFoot
				{
					OFFSET 2.562200 -7.039590 0.000000
					CHANNELS 3 Zrotation Yrotation Xrotation
					JOINT LeftToeBase
					{
						OFFSET 0.157640 -0.433110 2.322550
						CHANNELS 3 Zrotation Yrotation Xrotation
						End Site
						{
							OFFSET 0.000000 0.000000 0.000000
						}
					}
				}
			}
		}
	}
	JOINT RHipJoint
	{
		OFFSET 0.000000 0.000000 0.000000
		CHANNELS 3 Zrotation Yrotation Xrotation
		JOINT RightUpLeg
		{
			OFFSET -1.305520 -1.794630 0.839290
			CHANNELS 3 Zrotation Yrotation Xrotation
			JOINT RightLeg
			{
				OFFSET -2.542530 -6.985550 0.000000
				CHANNELS 3 Zrotation Yrotation Xrotation
				JOINT RightFoot
				{
					OFFSET -2.568260 -7.056230 0.000000
					CHANNELS 3 Zrotation Yrotation Xrotation
					JOINT RightToeBase
					{
						OFFSET -0.164730 -0.452590 2.363150
						CHANNELS 3 Zrotation Yrotation Xrotation
						End Site
						{
							OFFSET 0.000000 0.000000 0.000000
						}
					}
				}
			}
		}
	}
	JOINT LowerBack
	{
		OFFSET 0.000000 0.000000 0.000000
		CHANNELS 3 Zrotation Yrotation Xrotation
		JOINT Spine
		{
			OFFSET 0.028270 2.035590 -0.193380
			CHANNELS 3 Zrotation Yrotation Xrotation
			JOINT Spine1
			{
				OFFSET 0.056720 2.048850 -0.042750
				CHANNELS 3 Zrotation Yrotation Xrotation
				JOINT Neck
				{
					OFFSET 0.000000 0.000000 0.000000
					CHANNELS 3 Zrotation Yrotation Xrotation
					JOINT Neck1
					{
						OFFSET -0.054170 1.746240 0.172020
						CHANNELS 3 Zrotation Yrotation Xrotation
						JOINT Head
						{
							OFFSET 0.104070 1.761360 -0.123970
							CHANNELS 3 Zrotation Yrotation Xrotation
							End Site
							{
								OFFSET 0.000000 0.000000 0.000000
							}
						}
					}
				}
				JOINT LeftShoulder
				{
					OFFSET 0.000000 0.000000 0.000000
					CHANNELS 3 Zrotation Yrotation Xrotation
					JOINT LeftArm
					{
						OFFSET 3.362410 1.200890 -0.311210
						CHANNELS 3 Zrotation Yrotation Xrotation
						JOINT LeftForeArm
						{
							OFFSET 4.983000 -0.000000 -0.000000
							CHANNELS 3 Zrotation Yrotation Xrotation
							JOINT LeftHand
							{
								OFFSET 3.483560 -0.000000 -0.000000
								CHANNELS 3 Zrotation Yrotation Xrotation
								JOINT LeftFingerBase
								{
									OFFSET 0.000000 0.000000 0.000000
									CHANNELS 3 Zrotation Yrotation Xrotation
									JOINT LeftHandIndex1
									{
										OFFSET 0.715260 -0.000000 -0.000000
										CHANNELS 3 Zrotation Yrotation Xrotation
										End Site
										{
											OFFSET 0.000000 0.000000 0.000000
										}
									}
								}
								JOINT LThumb
								{
									OFFSET 0.000000 0.000000 0.000000
									CHANNELS 3 Zrotation Yrotation Xrotation
									End Site
									{
										OFFSET 0.000000 0.000000 0.000000
									}
								}
							}
						}
					}
				}
				JOINT RightShoulder
				{
					OFFSET 0.000000 0.000000 0.000000
					CHANNELS 3 Zrotation Yrotation Xrotation
					JOINT RightArm
					{
						OFFSET -3.136600 1.374050 -0.404650
						CHANNELS 3 Zrotation Yrotation Xrotation
						JOINT RightForeArm
						{
							OFFSET -5.241900 -0.000000 -0.000000
							CHANNELS 3 Zrotation Yrotation Xrotation
							JOINT RightHand
							{
								OFFSET -3.444170 -0.000000 -0.000000
								CHANNELS 3 Zrotation Yrotation Xrotation
								JOINT RightFingerBase
								{
									OFFSET 0.000000 0.000000 0.000000
									CHANNELS 3 Zrotation Yrotation Xrotation
									JOINT RightHandIndex1
									{
										OFFSET -0.622530 -0.000000 -0.000000
										CHANNELS 3 Zrotation Yrotation Xrotation
										End Site
										{
											OFFSET 0.000000 0.000000 0.000000
										}
									}
								}
								JOINT RThumb
								{
									OFFSET 0.000000 0.000000 0.000000
									CHANNELS 3 Zrotation Yrotation Xrotation
									End Site
									{
										OFFSET 0.000000 0.000000 0.000000
									}
								}
							}
						}
					}
				}
			}
		}
	}
}
MOTION
Frames: 9
Frame Time: 0.008333
0.699476 17.461328 -1.711160 4.720794 -0.174246 2.673932 2.891877 3.039167 1.025119 -31.173552 1.169216 1.828496 0.804083 5.602451 19.452753 0.591386 -1.376204 -7.248458 0.010693 0.660647 1.815472 -4.963622 -3.467370 1.411339 17.468672 13.732154 -29.320405 -1.213926 -6.230709 17.630091 1.423232 -10.935908 1.321975 -0.041621 1.305852 -3.590848 -5.305979 -1.679712 5.088733 1.261128 -2.916768 -0.966270 6.687605 -1.038485 -3.319104 -7.189214 -2.199741 -14.193484 3.397091 -1.976427 15.222013 2.653046 -1.341771 9.780117 -6.951920 2.974160 -2.129901 -83.311076 -6.864338 27.553153 15.217198 -26.593751 -4.388029 -0.744814 -2.634637 6.938890 17.194970 22.154953 7.636582 -7.125000 0.000000 0.000000 -12.826778 55.513076 -3.349732 5.797458 -2.555908 -2.084497 83.365847 -4.608345 5.316540 -13.582834 20.228845 -2.965854 0.739493 -0.478924 11.463022 -12.610273 10.303086 -2.514733 7.125000 0.000000 0.000000 9.624774 -19.169233 6.015590
0.691617 17.456538 -1.634245 4.768285 -0.130687 2.735291 2.892932 3.046636 1.031613 -31.174303 1.187923 2.171579 0.776479 5.520466 19.236306 0.578497 -1.335071 -7.181841 0.007480 0.552142 1.517216 -4.967283 -3.468161 1.406032 17.331233 13.911692 -29.063524 -1.096996 -5.849366 16.543431 1.377987 -10.632885 1.314806 -0.055064 1.506957 -4.144943 -5.375705 -1.716693 5.099862 1.265544 -2.971929 -0.983729 6.742535 -1.062398 -3.355681 -7.143407 -2.201532 -14.135051 3.326111 -1.984282 15.112412 2.614539 -1.346912 9.724150 -6.935539 2.971573 -2.134238 -83.303748 -6.901090 27.596730 15.359427 -26.795770 -4.463214 -0.741487 -2.652139 6.769755 17.314581 22.404873 7.768545 -7.125000 0.000000 0.000000 -12.832133 55.802227 -3.441795 5.789191 -2.560174 -2.089435 83.405924 -4.755789 5.299177 -13.644301 20.316246 -2.992689 0.745908 -0.427675 11.444006 -12.647511 9.766514 -2.383198 7.125000 0.000000 0.000000 9.618722 -19.761300 5.882770
0.683010 17.453110 -1.556785 4.786733 -0.080858 2.801883 2.895526 3.054158 1.037884 -31.138766 1.182820 2.512522 0.752278 5.446475 19.042978 0.572018 -1.328851 -7.114519 0.005826 0.491897 1.351644 -4.969963 -3.468554 1.400953 17.230589 14.082654 -28.818381 -0.995579 -5.494528 15.541103 1.330398 -10.315979 1.313950 -0.059017 1.567413 -4.311560 -5.385534 -1.750295 5.093189 1.256793 -3.017266 -0.996363 6.735741 -1.083223 -3.380971 -7.103976 -2.219848 -14.043497 3.284462 -2.018966 14.990496 2.587962 -1.361780 9.658762 -6.922948 2.971676 -2.139367 -83.270370 -6.911299 27.613516 15.507678 -27.007895 -4.547843 -0.735147 -2.656696 6.646261 17.358698 22.482921 7.811476 -7.125000 0.000000 0.000000 -12.827796 55.891929 -3.468686 5.781269 -2.563594 -2.090289 83.490356 -4.862775 5.255596 -13.673726 20.352561 -3.003688 0.754231 -0.385082 11.449334 -12.713866 9.299301 -2.274201 7.125000 0.000000 0.000000 9.588574 -20.274401 5.752254
0.673967 17.450472 -1.479008 4.788328 -0.027391 2.871513 2.899014 3.061712 1.044027 -31.082172 1.163900 2.852223 0.730051 5.377122 18.863064 0.569258 -1.342889 -7.046789 0.005076 0.459656 1.263062 -4.972073 -3.468718 1.396005 17.151295 14.248640 -28.580051 -0.903162 -5.155068 14.587708 1.281449 -9.991019 1.316756 -0.057464 1.546258 -4.253344 -5.360608 -1.781937 5.076186 1.240403 -3.056904 -1.006196 6.693132 -1.102255 -3.399710 -7.068245 -2.247754 -13.932726 3.259833 -2.069217 14.861433 2.568307 -1.382292 9.587907 -6.912557 2.973341 -2.144954 -83.221877 -6.906107 27.614756 15.659425 -27.225885 -4.637951 -0.727060 -2.653741 6.549252 17.359012 22.461241 7.802746 -7.125000 0.000000 0.000000 -12.817835 55.865900 -3.457761 5.773549 -2.566524 -2.088774 83.600525 -4.946284 5.196801 -13.684558 20.359233 -3.005499 0.763661 -0.347511 11.468788 -12.797117 8.872332 -2.178281 7.125000 0.000000 0.000000 9.544443 -20.741681 5.623076
0.664678 17.448906 -1.402591 4.828122 0.039671 2.911474 2.903530 3.068487 1.050267 -31.061369 1.157802 3.176366 0.715423 5.326179 18.736773 0.567232 -1.352564 -7.002670 0.003301 0.348441 0.957403 -4.973032 -3.469825 1.387834 17.062779 14.342011 -28.320814 -0.827743 -4.847998 13.733841 1.237085 -9.709079 1.414722 -0.063415 1.621504 -4.460877 -5.382522 -1.806402 5.094931 1.221492 -3.091863 -1.014854 6.678982 -1.118045 -3.426871 -7.065515 -2.251725 -13.885803 3.292345 -2.082881 14.850620 2.580225 -1.384804 9.576015 -6.908035 2.973488 -2.153512 -83.177464 -6.891834 27.666733 15.796619 -27.421519 -4.720420 -0.724035 -2.648837 6.446343 17.409197 22.399767 7.807671 -7.125000 0.000000 0.000000 -12.730170 55.809652 -3.416246 5.777480 -2.564920 -2.081087 83.681758 -4.897111 4.868551 -13.593105 20.214800 -2.960393 0.761981 -0.350673 11.685693 -12.796799 8.808886 -2.163468 7.125000 0.000000 0.000000 9.546975 -20.805316 5.610596
0.655312 17.447669 -1.326591 4.879610 0.110896 2.942354 2.908360 3.075025 1.056537 -31.051522 1.155629 3.495748 0.703121 5.280871 18.626896 0.565432 -1.360904 -6.965778 0.001212 0.213051 0.585292 -4.973639 -3.471222 1.378677 16.971441 14.413154 -28.055177 -0.757528 -4.550843 12.910442 1.194123 -9.440310 1.541818 -0.071662 1.726261 -4.749760 -5.418775 -1.828669 5.124619 1.201809 -3.125391 -1.023152 6.673542 -1.132841 -3.456610 -7.072888 -2.248369 -13.858426 3.342350 -2.085344 14.876005 2.601808 -1.381805 9.582174 -6.905309 2.973170 -2.162979 -83.134300 -6.874782 27.734242 15.929357 -27.610310 -4.800551 -0.722561 -2.643337 6.341628 17.474649 22.326110 7.816775 -7.125000 0.000000 0.000000 -12.618719 55.744152 -3.365367 5.784979 -2.561928 -2.071510 83.754133 -4.807322 4.457815 -13.470340 20.024109 -2.900925 0.756899 -0.366304 11.963044 -12.770898 8.856724 -2.173483 7.125000 0.000000 0.000000 9.563792 -20.745387 5.633839
0.646914 17.445947 -1.247399 4.852655 0.127059 2.950343 2.913148 3.082636 1.063698 -30.982106 1.141508 3.827203 0.694816 5.246779 18.549379 0.551096 -1.290115 -6.958451 0.001337 -0.023531 -0.064743 -4.976492 -3.473222 1.369601 17.019174 14.465840 -27.797578 -0.708721 -4.322112 12.288049 1.155891 -9.200646 1.681980 -0.104642 2.058611 -5.668594 -5.368919 -1.829681 5.146161 1.186355 -3.124152 -1.030486 6.626120 -1.131495 -3.487540 -7.036556 -2.251947 -13.914303 3.360461 -2.102975 14.993695 2.600969 -1.387226 9.642995 -6.900089 2.972405 -2.173412 -83.054504 -6.830252 27.874020 16.040325 -27.769417 -4.869392 -0.728440 -2.634019 6.287028 17.591691 22.200419 7.835600 -7.125000 0.000000 0.000000 -12.422774 55.635203 -3.279411 5.790290 -2.565271 -2.068005 83.865866 -4.813204 4.049542 -13.384533 19.896063 -2.860591 0.752158 -0.403402 12.162020 -12.768673 9.181185 -2.259138 7.125000 0.000000 0.000000 9.550151 -20.382319 5.704526
0.638618 17.444174 -1.167819 4.815423 0.137313 2.955153 2.917863 3.090398 1.071017 -30.904632 1.125696 4.159472 0.687326 5.214941 18.478320 0.535016 -1.208368 -6.955087 0.002125 -0.277181 -0.761687 -4.979672 -3.475339 1.360500 17.086590 14.512055 -27.542717 -0.662959 -4.103662 11.695798 1.117622 -8.960286 1.821107 -0.140100 2.411860 -6.645347 -5.308183 -1.829024 5.167573 1.172353 -3.119901 -1.037828 6.575163 -1.128730 -3.519287 -6.997270 -2.256444 -13.975850 3.373945 -2.121928 15.117742 2.597626 -1.393646 9.707594 -6.894502 2.971819 -2.183723 -82.974129 -6.781292 28.015092 16.147923 -27.923811 -4.936582 -0.735293 -2.623660 6.243158 17.712172 22.060753 7.851822 -7.125000 0.000000 0.000000 -12.215834 55.512169 -3.186544 5.794909 -2.569398 -2.065485 83.979301 -4.835124 3.659442 -13.306785 19.780956 -2.824208 0.748004 -0.441785 12.331103 -12.771415 9.530618 -2.352082 7.125000 0.000000 0.000000 9.531570 -19.992180 5.778051
0.630113 17.442505 -1.087405 4.734456 0.157364 2.941647 2.920495 3.099093 1.080133 -30.786133 1.099328 4.474663 0.691106 5.213618 18.494103 0.508771 -1.064243 -6.970978 0.015728 -0.705365 -1.938858 -4.985096 -3.478968 1.350310 17.276826 14.422352 -27.344566 -0.636545 -3.964120 11.333604 1.061649 -8.596334 1.882361 -0.165700 2.615374 -7.210046 -5.211886 -1.851141 5.213507 1.188549 -3.144122 -1.048772 6.561742 -1.138594 -3.572152 -7.019584 -2.265108 -13.921385 3.355757 -2.128683 15.115403 2.595270 -1.401519 9.697793 -6.886292 2.978354 -2.186895 -83.004167 -6.691283 27.943019 16.227341 -28.036118 -4.992167 -0.746561 -2.594414 6.356320 17.758480 21.670212 7.753332 -7.125000 0.000000 0.000000 -11.964118 55.104764 -3.002364 5.785731 -2.575636 -2.072199 84.007598 -5.019005 3.824096 -13.349371 19.847467 -2.843202 0.760852 -0.444756 11.848141 -12.845178 9.684809 -2.405906 7.125000 0.000000 0.000000 9.466606 -19.825137 5.773285
